<?xml version="1.0" encoding="iso-8859-1"?>
<!-- Uploaded to: SVG Repo, www.svgrepo.com, Generator: SVG Repo Mixer Tools -->
<svg height="800px" width="800px" version="1.1" id="Capa_1" xmlns="http://www.w3.org/2000/svg" xmlns:xlink="http://www.w3.org/1999/xlink" 
	 viewBox="0 0 17.469 17.469" xml:space="preserve">
<g>
	<g>
		<path style="fill:#030104;" d="M5.925,4.982c-0.442,0-0.742,0.043-0.898,0.087v2.841C5.213,7.952,5.44,7.966,5.754,7.966
			c1.157,0,1.871-0.585,1.871-1.571C7.624,5.511,7.01,4.982,5.925,4.982z"/>
		<path style="fill:#030104;" d="M16.4,0.002H1.07C0.479,0.002,0,0.48,0,1.069v15.329c0,0.59,0.479,1.069,1.07,1.069H16.4
			c0.59,0,1.069-0.479,1.069-1.069V1.07C17.469,0.48,16.99,0.002,16.4,0.002z M8.894,8.624c-0.741,0.7-1.842,1.014-3.125,1.014
			c-0.287,0-0.543-0.014-0.743-0.043v3.442H2.869V3.541C3.54,3.428,4.482,3.342,5.811,3.342c1.341,0,2.299,0.256,2.94,0.771
			c0.617,0.486,1.03,1.286,1.03,2.228S9.466,8.08,8.894,8.624z M12.145,13.179c-0.916,0-1.729-0.198-2.258-0.485l0.385-1.556
			c0.4,0.241,1.229,0.527,1.873,0.527c0.655,0,0.927-0.228,0.927-0.586c0-0.356-0.214-0.527-1.027-0.799
			c-1.442-0.485-2-1.271-1.986-2.099c0-1.298,1.114-2.286,2.842-2.286c0.814,0,1.542,0.187,1.97,0.4l-0.385,1.5
			c-0.314-0.172-0.913-0.399-1.514-0.399c-0.527,0-0.826,0.214-0.826,0.571c0,0.328,0.269,0.499,1.126,0.8
			c1.328,0.456,1.886,1.128,1.899,2.154C15.171,12.222,14.141,13.179,12.145,13.179z"/>
	</g>
</g>
</svg>